<svg width="24" height="25" viewBox="0 0 24 25" fill="none" xmlns="http://www.w3.org/2000/svg">
<path fill-rule="evenodd" clip-rule="evenodd" d="M21.0003 7.58862C21.0003 9.6136 19.3551 11.2559 17.3265 11.2559C15.2979 11.2559 13.6536 9.6136 13.6536 7.58862C13.6536 5.56365 15.2979 3.92139 17.3265 3.92139C19.3551 3.92139 21.0003 5.56365 21.0003 7.58862Z" stroke="#DFDFDF" stroke-width="1.5" stroke-linecap="round" stroke-linejoin="round"/>
<path fill-rule="evenodd" clip-rule="evenodd" d="M10.3467 7.58862C10.3467 9.6136 8.7024 11.2559 6.6729 11.2559C4.6452 11.2559 3 9.6136 3 7.58862C3 5.56365 4.6452 3.92139 6.6729 3.92139C8.7024 3.92139 10.3467 5.56365 10.3467 7.58862Z" stroke="#DFDFDF" stroke-width="1.5" stroke-linecap="round" stroke-linejoin="round"/>
<path fill-rule="evenodd" clip-rule="evenodd" d="M21.0003 18.1578C21.0003 20.1828 19.3551 21.8242 17.3265 21.8242C15.2979 21.8242 13.6536 20.1828 13.6536 18.1578C13.6536 16.1329 15.2979 14.4906 17.3265 14.4906C19.3551 14.4906 21.0003 16.1329 21.0003 18.1578Z" stroke="#DFDFDF" stroke-width="1.5" stroke-linecap="round" stroke-linejoin="round"/>
<path fill-rule="evenodd" clip-rule="evenodd" d="M10.3467 18.1578C10.3467 20.1828 8.7024 21.8242 6.6729 21.8242C4.6452 21.8242 3 20.1828 3 18.1578C3 16.1329 4.6452 14.4906 6.6729 14.4906C8.7024 14.4906 10.3467 16.1329 10.3467 18.1578Z" stroke="#DFDFDF" stroke-width="1.5" stroke-linecap="round" stroke-linejoin="round"/>
</svg>
