<svg width="21" height="21" viewBox="0 0 21 21" fill="none" xmlns="http://www.w3.org/2000/svg">
<path fill-rule="evenodd" clip-rule="evenodd" d="M4.09644 17.8009C3.55306 17.8009 3.11206 17.3599 3.11206 16.8165V7.81274C3.11206 7.26937 3.55306 6.82837 4.09644 6.82837C4.63981 6.82837 5.08081 7.26937 5.08081 7.81274V16.8165C5.08081 17.3599 4.63981 17.8009 4.09644 17.8009Z" fill="#DFDFDF"/>
<path fill-rule="evenodd" clip-rule="evenodd" d="M10.2219 17.7995C9.67855 17.7995 9.23755 17.3585 9.23755 16.8151V3.50244C9.23755 2.95907 9.67855 2.51807 10.2219 2.51807C10.7653 2.51807 11.2063 2.95907 11.2063 3.50244V16.8151C11.2063 17.3585 10.7653 17.7995 10.2219 17.7995Z" fill="#DFDFDF"/>
<path fill-rule="evenodd" clip-rule="evenodd" d="M16.2466 17.7994C15.7032 17.7994 15.2622 17.3584 15.2622 16.8151V12.5704C15.2622 12.0271 15.7032 11.5861 16.2466 11.5861C16.79 11.5861 17.231 12.0271 17.231 12.5704V16.8151C17.231 17.3584 16.79 17.7994 16.2466 17.7994Z" fill="#DFDFDF"/>
</svg>
