<svg width="24" height="25" viewBox="0 0 24 25" fill="none" xmlns="http://www.w3.org/2000/svg">
<path fill-rule="evenodd" clip-rule="evenodd" d="M11.8445 22.55C8.15273 22.55 5 21.9765 5 19.6799C5 17.3832 8.13273 15.2631 11.8445 15.2631C15.5364 15.2631 18.6891 17.3627 18.6891 19.6593C18.6891 21.9551 15.5564 22.55 11.8445 22.55Z" stroke="#393939" stroke-width="1.5" stroke-linecap="round" stroke-linejoin="round"/>
<path fill-rule="evenodd" clip-rule="evenodd" d="M11.8372 12.0805C14.26 12.0805 16.2236 10.1203 16.2236 7.70194C16.2236 5.28354 14.26 3.32251 11.8372 3.32251C9.41452 3.32251 7.44998 5.28354 7.44998 7.70194C7.4418 10.1122 9.3918 12.0723 11.8063 12.0805C11.8172 12.0805 11.8272 12.0805 11.8372 12.0805Z" stroke="#393939" stroke-width="1.5" stroke-linecap="round" stroke-linejoin="round"/>
</svg>
