<svg width="18" height="18" viewBox="0 0 18 18" fill="none" xmlns="http://www.w3.org/2000/svg">
<path fill-rule="evenodd" clip-rule="evenodd" d="M9 2.625C5.48475 2.625 2.625 5.48475 2.625 9C2.625 12.5153 5.48475 15.375 9 15.375C12.5153 15.375 15.375 12.5153 15.375 9C15.375 5.48475 12.5153 2.625 9 2.625ZM9 16.5C4.8645 16.5 1.5 13.1355 1.5 9C1.5 4.8645 4.8645 1.5 9 1.5C13.1355 1.5 16.5 4.8645 16.5 9C16.5 13.1355 13.1355 16.5 9 16.5Z" fill="#888888"/>
<path fill-rule="evenodd" clip-rule="evenodd" d="M11.5734 11.7693C11.4751 11.7693 11.3761 11.7438 11.2854 11.6905L8.45785 10.0038C8.28835 9.90178 8.18335 9.71803 8.18335 9.52003V5.88403C8.18335 5.57353 8.43535 5.32153 8.74585 5.32153C9.0571 5.32153 9.30835 5.57353 9.30835 5.88403V9.20053L11.8621 10.723C12.1284 10.8828 12.2161 11.2278 12.0571 11.4948C11.9514 11.671 11.7646 11.7693 11.5734 11.7693Z" fill="#888888"/>
</svg>
