<svg width="24" height="24" viewBox="0 0 24 24" fill="none" xmlns="http://www.w3.org/2000/svg">
<mask id="mask0_329_3473" style="mask-type:luminance" maskUnits="userSpaceOnUse" x="2" y="2" width="20" height="20">
<path fill-rule="evenodd" clip-rule="evenodd" d="M2 2H21.4768V21.477H2V2Z" fill="white"/>
</mask>
<g mask="url(#mask0_329_3473)">
<path fill-rule="evenodd" clip-rule="evenodd" d="M11.7988 4.23224C8.16076 4.23224 5.20101 7.26761 5.20101 10.9996C5.20101 14.7316 8.16076 17.7678 11.7988 17.7678C15.436 17.7678 18.3958 14.7316 18.3958 10.9996C18.3958 7.26761 15.436 4.23224 11.7988 4.23224ZM11.799 19C7.49868 19 4 15.4109 4 10.9996C4 6.58823 7.49868 3 11.799 3C16.0992 3 19.5971 6.58823 19.5971 10.9996C19.5971 15.4109 16.0992 19 11.799 19Z" fill="#DFDFDF"/>
<path d="M11.7988 3.73224C7.87275 3.73224 4.70101 7.00349 4.70101 10.9996H5.70101C5.70101 7.53174 8.44877 4.73224 11.7988 4.73224V3.73224ZM4.70101 10.9996C4.70101 14.9956 7.87268 18.2678 11.7988 18.2678V17.2678C8.44885 17.2678 5.70101 14.4676 5.70101 10.9996H4.70101ZM11.7988 18.2678C15.7241 18.2678 18.8958 14.9956 18.8958 10.9996H17.8958C17.8958 14.4676 15.1479 17.2678 11.7988 17.2678V18.2678ZM18.8958 10.9996C18.8958 7.00353 15.7241 3.73224 11.7988 3.73224V4.73224C15.148 4.73224 17.8958 7.5317 17.8958 10.9996H18.8958ZM11.799 18.5C7.78677 18.5 4.5 15.1469 4.5 10.9996H3.5C3.5 15.675 7.2106 19.5 11.799 19.5V18.5ZM4.5 10.9996C4.5 6.85235 7.7867 3.5 11.799 3.5V2.5C7.21066 2.5 3.5 6.32412 3.5 10.9996H4.5ZM11.799 3.5C15.8112 3.5 19.0971 6.85228 19.0971 10.9996H20.0971C20.0971 6.32419 16.3873 2.5 11.799 2.5V3.5ZM19.0971 10.9996C19.0971 15.147 15.8111 18.5 11.799 18.5V19.5C16.3874 19.5 20.0971 15.6749 20.0971 10.9996H19.0971Z" fill="#DFDFDF"/>
</g>
<mask id="mask1_329_3473" style="mask-type:luminance" maskUnits="userSpaceOnUse" x="15" y="17" width="6" height="6">
<path fill-rule="evenodd" clip-rule="evenodd" d="M15 17H21V23H15V17Z" fill="white"/>
</mask>
<g mask="url(#mask1_329_3473)">
<path fill-rule="evenodd" clip-rule="evenodd" d="M19.4027 21C19.2507 21 19.0978 20.9418 18.9808 20.8253L16.1753 18.0224C15.9421 17.7887 15.9413 17.4098 16.1745 17.1761C16.407 16.9408 16.7852 16.9424 17.0192 17.1745L19.8247 19.9782C20.0579 20.2119 20.0587 20.59 19.8255 20.8237C19.7092 20.9418 19.5556 21 19.4027 21Z" fill="#DFDFDF"/>
<path d="M19.4027 21C19.2507 21 19.0978 20.9418 18.9808 20.8253L16.1753 18.0224C15.9421 17.7887 15.9413 17.4098 16.1745 17.1761C16.407 16.9408 16.7852 16.9424 17.0192 17.1745L19.8247 19.9782C20.0579 20.2119 20.0587 20.59 19.8255 20.8237C19.7092 20.9418 19.5556 21 19.4027 21" stroke="#DFDFDF"/>
</g>
</svg>
