<svg width="90" height="90" viewBox="0 0 90 90" fill="none" xmlns="http://www.w3.org/2000/svg">
<path fill-rule="evenodd" clip-rule="evenodd" d="M80.4 52.478C70.4213 52.478 70.4213 37.0489 80.4 37.0489C80.4 19.172 80.4 12.7915 45.1688 12.7915C9.9375 12.7915 9.9375 19.172 9.9375 37.0489C19.9163 37.0489 19.9163 52.478 9.9375 52.478C9.9375 70.3583 9.9375 76.7389 45.1688 76.7389C80.4 76.7389 80.4 70.3583 80.4 52.478Z" stroke="#EDEDED" stroke-width="5.625" stroke-linecap="round" stroke-linejoin="round"/>
<g clip-path="url(#clip0_1_1608)">
<path d="M43.0403 33.8907C43.8077 31.5994 47.0485 31.5994 47.8159 33.8907L49.2905 38.2933C49.6343 39.3198 50.5958 40.0117 51.6784 40.0117H56.2838C58.7417 40.0117 59.7435 43.1722 57.7345 44.5883L54.1414 47.1207C53.232 47.7618 52.851 48.9237 53.2044 49.9788L54.6076 54.1685C55.3802 56.4751 52.7574 58.428 50.769 57.0265L46.8789 54.2847C46.0089 53.6715 44.8473 53.6715 43.9774 54.2847L40.0872 57.0265C38.0989 58.428 35.4761 56.4751 36.2486 54.1685L37.6519 49.9788C38.0053 48.9237 37.6243 47.7618 36.7148 47.1207L33.1217 44.5883C31.1127 43.1722 32.1146 40.0117 34.5725 40.0117H39.1779C40.2605 40.0117 41.2219 39.3198 41.5657 38.2933L43.0403 33.8907Z" fill="#EDEDED"/>
</g>
<defs>
<clipPath id="clip0_1_1608">
<rect width="32.8571" height="30" fill="white" transform="translate(29 30)"/>
</clipPath>
</defs>
</svg>
