<svg width="11" height="11" viewBox="0 0 11 11" fill="none" xmlns="http://www.w3.org/2000/svg">
<path d="M4.55079 1.56994C4.8536 0.655917 6.14651 0.655916 6.44932 1.56994L7.02884 3.31923C7.16442 3.72846 7.547 4.00474 7.9781 4.00474H9.81155C10.785 4.00474 11.1846 5.25425 10.3919 5.81914L8.94219 6.85213C8.58488 7.10674 8.43527 7.56452 8.57324 7.98101L9.13482 9.67612C9.43891 10.594 8.39273 11.3661 7.60524 10.805L6.08037 9.71841C5.73307 9.47094 5.26704 9.47094 4.91974 9.71841L3.39487 10.805C2.60738 11.3661 1.5612 10.594 1.86529 9.67612L2.42687 7.98101C2.56484 7.56452 2.41523 7.10674 2.05791 6.85213L0.608245 5.81914C-0.184502 5.25425 0.215137 4.00474 1.18856 4.00474H3.02201C3.45311 4.00474 3.83569 3.72846 3.97127 3.31923L4.55079 1.56994Z" fill="url(#paint0_linear_389_3561)"/>
<defs>
<linearGradient id="paint0_linear_389_3561" x1="-2.3208" y1="-1.29541" x2="16.1717" y2="3.90152" gradientUnits="userSpaceOnUse">
<stop stop-color="#A48E57"/>
<stop offset="1" stop-color="#888888"/>
</linearGradient>
</defs>
</svg>
