<svg width="16" height="16" viewBox="0 0 16 16" fill="none" xmlns="http://www.w3.org/2000/svg">
<path d="M7.97396 11.0112V9.25916" stroke="#888888" stroke-width="1.5" stroke-linecap="round" stroke-linejoin="round"/>
<path d="M14.0595 7.65186L14.0402 7.66586C12.4255 8.66052 10.2935 9.26119 7.97085 9.26119C5.64818 9.26119 3.52218 8.66052 1.90818 7.66586L1.88818 7.65186" stroke="#888888" stroke-width="1.5" stroke-linecap="round" stroke-linejoin="round"/>
<path fill-rule="evenodd" clip-rule="evenodd" d="M1.8335 8.90043C1.8335 4.7991 3.36883 3.43176 7.97416 3.43176C12.5802 3.43176 14.1148 4.7991 14.1148 8.90043C14.1148 13.0018 12.5802 14.3691 7.97416 14.3691C3.36883 14.3691 1.8335 13.0018 1.8335 8.90043Z" stroke="#888888" stroke-width="1.5" stroke-linecap="round" stroke-linejoin="round"/>
<path d="M10.1493 3.57954V3.15954C10.1493 2.31688 9.53398 1.63354 8.77598 1.63354H7.17265C6.41465 1.63354 5.79932 2.31688 5.79932 3.15954V3.57954" stroke="#888888" stroke-width="1.5" stroke-linecap="round" stroke-linejoin="round"/>
</svg>
