<svg width="16" height="16" viewBox="0 0 16 16" fill="none" xmlns="http://www.w3.org/2000/svg">
<path fill-rule="evenodd" clip-rule="evenodd" d="M6.37234 14.3041C3.92434 14.3041 1.83301 13.9341 1.83301 12.4515C1.83301 10.9688 3.91101 9.63281 6.37234 9.63281C8.82034 9.63281 10.911 10.9561 10.911 12.4381C10.911 13.9201 8.83367 14.3041 6.37234 14.3041Z" stroke="#888888" stroke-width="1.5" stroke-linecap="round" stroke-linejoin="round"/>
<path fill-rule="evenodd" clip-rule="evenodd" d="M6.37224 7.51837C7.97891 7.51837 9.28158 6.21571 9.28158 4.60904C9.28158 3.00237 7.97891 1.69971 6.37224 1.69971C4.76558 1.69971 3.46291 3.00237 3.46291 4.60904C3.45691 6.21037 4.75091 7.51304 6.35158 7.51837H6.37224Z" stroke="#888888" stroke-width="1.5" stroke-linecap="round" stroke-linejoin="round"/>
<path d="M11.2008 6.71926C12.1362 6.46926 12.8255 5.61659 12.8255 4.60192C12.8262 3.54326 12.0748 2.65926 11.0762 2.45459" stroke="#888888" stroke-width="1.5" stroke-linecap="round" stroke-linejoin="round"/>
<path d="M11.6406 9.10242C12.966 9.10242 14.098 10.0011 14.098 10.8031C14.098 11.2758 13.708 11.7611 13.1146 11.9004" stroke="#888888" stroke-width="1.5" stroke-linecap="round" stroke-linejoin="round"/>
</svg>
